<svg xmlns="http://www.w3.org/2000/svg" viewBox="0 0 440 320"><defs><linearGradient id="bg" x1="0" y1="0" x2="1" y2="1"><stop stop-color="#dcfce7"/><stop offset="1" stop-color="#ffffff"/></linearGradient><filter id="shadow" x="-30%" y="-30%" width="160%" height="160%"><feDropShadow dx="0" dy="12" stdDeviation="12" flood-opacity=".14"/></filter></defs><rect width="440" height="320" rx="28" fill="url(#bg)"/><circle cx="60" cy="55" r="44" fill="#fff" opacity=".45"/><circle cx="380" cy="265" r="70" fill="#fff" opacity=".35"/><g filter="url(#shadow)"><g><rect x="150" y="82" width="140" height="230" rx="28" fill="#ffffff" opacity=".85"/><path d="M160 118h120l-12 180a20 20 0 0 1-20 14h-56a20 20 0 0 1-20-14z" fill="#b7f34a"/><path d="M177 145h86" stroke="#ecfccb" stroke-width="8" opacity=".8"/><circle cx="208" cy="125" r="10" fill="#84cc16"/><circle cx="246" cy="112" r="12" fill="#65a30d"/><path d="M205 90c-18-22-10-43 9-56" stroke="#22c55e" stroke-width="8" fill="none" stroke-linecap="round"/><path d="M255 87c20-22 13-44-5-57" stroke="#22c55e" stroke-width="8" fill="none" stroke-linecap="round"/></g></g><text x="28" y="292" font-family="Arial, sans-serif" font-size="18" font-weight="700" fill="#166534" opacity=".85">Fresh Lime</text></svg>